<svg width="1586" height="639" viewBox="0 0 1586 639" fill="none" xmlns="http://www.w3.org/2000/svg">
<path fill-rule="evenodd" clip-rule="evenodd" d="M197.549 168.017C210.53 153.278 230.397 149.982 249.066 158.363C267.752 166.752 282.138 185.334 286.904 209.11L287.376 211.522L287.54 212.344C291.488 231.942 295.288 240.595 303.341 249.263L303.621 249.559C307.885 253.991 326.374 270.502 329.051 273.011C330.26 274.144 330.322 276.042 329.189 277.251C328.056 278.46 326.158 278.522 324.949 277.389L322.366 275.032C316.331 269.563 302.55 257.16 299.082 253.493L298.945 253.347C290.039 243.761 285.806 234.123 281.659 213.529C281.491 212.697 281.323 211.844 281.153 210.964C272.445 165.474 226.105 144.671 202.051 171.983C191.667 183.774 190.622 201.56 197.022 222.81C201.636 238.126 210.316 254.72 216.646 262.658L216.928 263.007C220.046 266.843 221.391 273.646 222.924 289.495L224.401 305.551L224.715 308.803C225.167 313.381 225.612 317.469 226.109 321.51C227.666 334.177 229.634 345.443 232.319 356.126C232.758 357.871 233.214 359.593 233.689 361.293C234.135 362.888 233.203 364.544 231.607 364.989C230.012 365.435 228.357 364.503 227.911 362.908C227.421 361.157 226.951 359.384 226.5 357.589C223.748 346.64 221.739 335.138 220.154 322.242L219.925 320.349C219.512 316.867 219.13 313.307 218.745 309.398L218.343 305.208C218.004 301.564 217.265 293.386 217.118 291.809L216.953 290.087C215.57 275.847 214.293 269.277 212.275 266.796C205.424 258.391 196.184 240.83 191.277 224.54C184.341 201.511 185.506 181.692 197.549 168.017Z" fill="#FFDD59"/>
<path fill-rule="evenodd" clip-rule="evenodd" d="M149.996 313.55C167.162 312.018 185.44 319.758 198.864 335.266L200.162 336.783C207.667 345.525 212.942 350.481 218.084 353.675C222.34 356.319 226.613 357.9 233.771 359.629L234.8 359.871C237.397 360.457 250.267 363.3 255.54 364.592L257.725 365.134C267.577 367.607 277.737 370.566 289.349 374.455C306.561 380.192 322.738 391.692 338.1 408.261C339.226 409.476 339.155 411.374 337.94 412.501C336.725 413.627 334.827 413.555 333.7 412.34C318.974 396.457 303.605 385.531 287.447 380.146C275.557 376.163 265.23 373.175 255.188 370.685L252.493 370.03C246.138 368.525 233.968 365.844 233.006 365.615C224.897 363.691 219.943 361.893 214.918 358.772C208.944 355.061 203.058 349.46 194.714 339.644C169.74 310.262 128.079 313.981 122.138 343.305C119.532 355.972 126.092 369.264 139.464 382.085C149.105 391.33 162.207 399.861 170.002 403.05L170.394 403.207C174.407 404.779 178.3 409.333 186.075 420.428L195.085 433.377L196.705 435.677C201.071 441.822 205.035 447.117 209.104 452.159C222.518 468.778 235.991 481.17 250.841 489.27C259.938 494.252 268.43 496.295 276.887 496.019C283.232 495.812 288.835 494.485 296.802 491.698L302.697 489.591L304.098 489.102C305.431 488.645 306.573 488.277 307.671 487.956C311.415 486.859 314.493 486.363 317.407 486.522C324.487 486.909 329.979 491.233 334.578 500.349C335.325 501.829 334.731 503.633 333.251 504.379C331.772 505.126 329.968 504.531 329.222 503.052C325.584 495.842 321.925 492.881 317.34 492.53L316.799 492.499C313.757 492.353 312.211 492.66 304.44 495.369L299.537 497.096C290.646 500.248 284.371 501.778 277.082 502.016C267.548 502.327 257.994 500.028 247.963 494.534C232.324 486.004 218.302 473.107 204.435 455.927C200.524 451.082 196.721 446.023 192.592 440.244L190.744 437.636L181.174 423.889L180.229 422.548C174.065 413.839 170.588 409.815 168.311 408.837L168.198 408.791C159.716 405.441 145.672 396.351 135.311 386.416C120.605 372.316 113.151 357.213 116.26 342.105C119.565 325.788 132.774 315.088 149.996 313.55Z" fill="#FFDD59"/>
<path fill-rule="evenodd" clip-rule="evenodd" d="M358.474 123.307C369.56 101.934 387.577 91.2795 413.279 93.7135C424.105 94.7252 432.768 97.7547 439.393 102.696C440.722 103.686 440.995 105.566 440.005 106.894C439.014 108.222 437.135 108.496 435.807 107.505C430.121 103.265 422.505 100.602 412.717 99.6871C389.533 97.4916 373.797 106.798 363.801 126.069C355.711 141.666 351.718 162.922 350.639 189.449L350.598 190.513C350.3 198.444 350.283 204.736 350.446 214.843L350.571 222.458C350.712 232.49 350.606 236.708 350.032 241.877L350.002 242.15C349.101 250.1 347.06 256.655 343.299 263.005C340.394 267.911 336.435 272.713 331.142 277.734L330.548 278.293C320.752 287.443 320.947 297.746 328.708 314.189L329.488 315.814C330.447 317.782 331.49 319.816 333.117 322.923L335.466 327.424C338.674 333.617 340.012 336.475 341.467 340.303C343.882 346.655 344.827 352.098 344.067 357.147L343.918 358.045C343.337 361.393 341.679 369.759 341.503 370.715C338.569 386.655 337.67 401.229 339.612 419.401C342.225 443.836 349.995 471.179 364.229 502.354C364.917 503.862 364.253 505.641 362.746 506.329C361.239 507.018 359.459 506.354 358.771 504.846C344.277 473.101 336.33 445.135 333.646 420.039C331.677 401.621 332.533 386.719 335.419 370.636L335.689 369.171C336.133 366.862 337.832 358.253 338.133 356.254C338.697 352.513 337.99 348.205 336.063 342.979L335.682 341.974C334.329 338.471 332.963 335.616 329.679 329.298L326.915 324.008C325.468 321.225 324.51 319.325 323.531 317.275C319.422 308.672 317.272 301.882 317.084 295.349C316.856 287.4 319.705 280.38 326.073 274.267L326.452 273.908C331.65 269.053 335.435 264.511 338.137 259.948C341.33 254.555 343.109 249.005 343.956 242.184L344.097 240.962C344.611 236.207 344.706 232.097 344.57 222.455L344.412 212.638C344.293 204.23 344.319 198.403 344.558 191.515L344.602 190.288C345.647 162.456 349.78 140.07 358.474 123.307Z" fill="#FFDD59"/>
<path fill-rule="evenodd" clip-rule="evenodd" d="M435.434 348.224C418.999 365.374 407.004 389.659 398.694 420.046C391.96 444.668 387.868 472.281 385.608 503.383C385.482 505.12 386.858 506.6 388.6 506.6H437.6C439.257 506.6 440.6 505.257 440.6 503.6V350.3C440.6 347.596 437.305 346.272 435.434 348.224ZM434.6 358.202V500.6H391.834L391.843 500.477C394.123 471.095 398.105 444.944 404.481 421.629C411.612 395.556 421.476 374.233 434.472 358.358L434.6 358.202Z" fill="#FFDD59"/>
<path fill-rule="evenodd" clip-rule="evenodd" d="M436.7 500.601C438.357 500.601 439.7 501.944 439.7 503.601C439.7 505.198 438.451 506.504 436.876 506.595L436.7 506.601H315.7C308.512 506.601 303.198 512.951 304.57 519.68L330.428 635.245C330.789 636.862 329.772 638.466 328.155 638.828C326.596 639.177 325.049 638.243 324.616 636.727L324.572 636.556L298.776 521.273C296.361 510.766 304.442 500.802 315.368 500.604L315.7 500.601H436.7Z" fill="#2E186A"/>
<path fill-rule="evenodd" clip-rule="evenodd" d="M1200.9 0.400391H437.6C435.943 0.400391 434.6 1.74354 434.6 3.40039V634.8C434.6 636.457 435.943 637.8 437.6 637.8H1200.9C1202.56 637.8 1203.9 636.457 1203.9 634.8V3.40039C1203.9 1.74354 1202.56 0.400391 1200.9 0.400391ZM1197.9 6.39939V631.8H440.6V6.39939H1197.9Z" fill="#2E186A"/>
<path fill-rule="evenodd" clip-rule="evenodd" d="M914.4 472.2H871.6C869.943 472.2 868.6 473.543 868.6 475.2V542C868.6 543.657 869.943 545 871.6 545H914.4C916.057 545 917.4 543.657 917.4 542V475.2C917.4 473.543 916.057 472.2 914.4 472.2ZM911.399 478.2V539H874.599V478.2H911.399Z" fill="#2E186A"/>
<path fill-rule="evenodd" clip-rule="evenodd" d="M981.6 444.101H938.8C937.143 444.101 935.8 445.444 935.8 447.101V542.001C935.8 543.657 937.143 545.001 938.8 545.001H981.6C983.257 545.001 984.6 543.657 984.6 542.001V447.101C984.6 445.444 983.257 444.101 981.6 444.101ZM978.599 450.101V539.001H941.799V450.101H978.599Z" fill="#2E186A"/>
<path fill-rule="evenodd" clip-rule="evenodd" d="M1048.7 399.7H1005.9C1004.24 399.7 1002.9 401.043 1002.9 402.7V542C1002.9 543.657 1004.24 545 1005.9 545H1048.7C1050.36 545 1051.7 543.657 1051.7 542V402.7C1051.7 401.043 1050.36 399.7 1048.7 399.7ZM1045.7 405.7V539H1008.9V405.7H1045.7Z" fill="#2E186A"/>
<rect x="1073" y="364.301" width="42.8" height="177.7" fill="#FFDD59"/>
<path fill-rule="evenodd" clip-rule="evenodd" d="M1130.3 273.101C1129.6 272.501 1128.7 272.301 1127.9 272.401L1099.9 276.901C1098.3 277.201 1097.1 278.701 1097.4 280.301C1097.7 281.901 1099.2 283.001 1100.8 282.801L1119.1 279.901L1064.5 343.301L1042.2 321.901C1041.6 321.301 1040.8 321.001 1040 321.101C1039.2 321.101 1038.4 321.501 1037.9 322.101L964.7 407.101L943.5 391.201C942.3 390.301 940.7 390.401 939.6 391.401L873.9 454.401C872.7 455.501 872.7 457.401 873.8 458.601C874.4 459.201 875.2 459.501 876 459.501C876.7 459.501 877.5 459.201 878.1 458.701L942 397.401L963.5 413.501C964.8 414.401 966.5 414.301 967.6 413.101L1040.5 328.401L1062.8 349.801C1063.4 350.401 1064.2 350.701 1065 350.601C1065.8 350.601 1066.6 350.201 1067.1 349.601L1125.4 281.901L1125 305.601C1125 307.301 1126.3 308.601 1128 308.601V308.601C1129.6 308.601 1131 307.301 1131 305.601L1131.5 275.301C1131.4 274.601 1131 273.701 1130.3 273.101Z" fill="#FFDD59"/>
<path fill-rule="evenodd" clip-rule="evenodd" d="M698.6 469.9C700.257 469.9 701.6 471.244 701.6 472.9C701.6 474.498 700.351 475.804 698.776 475.895L698.6 475.9H514.6C512.943 475.9 511.6 474.557 511.6 472.9C511.6 471.303 512.849 469.997 514.424 469.905L514.6 469.9H698.6Z" fill="#2E186A"/>
<path fill-rule="evenodd" clip-rule="evenodd" d="M650.1 497.9C651.757 497.9 653.1 499.244 653.1 500.9C653.1 502.498 651.851 503.804 650.276 503.895L650.1 503.9H514.6C512.943 503.9 511.6 502.557 511.6 500.9C511.6 499.303 512.849 497.997 514.424 497.905L514.6 497.9H650.1Z" fill="#2E186A"/>
<path fill-rule="evenodd" clip-rule="evenodd" d="M606.6 529.301C608.257 529.301 609.6 530.644 609.6 532.301C609.6 533.898 608.351 535.204 606.776 535.296L606.6 535.301H510.6C508.943 535.301 507.6 533.958 507.6 532.301C507.6 530.703 508.849 529.397 510.424 529.306L510.6 529.301H606.6Z" fill="#2E186A"/>
<path fill-rule="evenodd" clip-rule="evenodd" d="M799.2 469.9C800.857 469.9 802.2 471.244 802.2 472.9C802.2 474.498 800.951 475.804 799.376 475.895L799.2 475.9H719.8C718.143 475.9 716.8 474.557 716.8 472.9C716.8 471.303 718.049 469.997 719.624 469.905L719.8 469.9H799.2Z" fill="#2E186A"/>
<path fill-rule="evenodd" clip-rule="evenodd" d="M601.9 411.7L623.1 431.7V391.4L601.9 411.7Z" fill="#FFDD59"/>
<path fill-rule="evenodd" clip-rule="evenodd" d="M571.4 432.701L593.2 411.801L571.4 391.301V432.701Z" fill="#FFDD59"/>
<path fill-rule="evenodd" clip-rule="evenodd" d="M679.5 384.301H630.5L655.2 407.601L679.5 384.301Z" fill="#FFDD59"/>
<path fill-rule="evenodd" clip-rule="evenodd" d="M597.5 415.9L572.7 439.8H622.9V439.8L597.5 415.9Z" fill="#FFDD59"/>
<path fill-rule="evenodd" clip-rule="evenodd" d="M629.1 432.701L650.9 411.801L629.1 391.301V432.701Z" fill="#FFDD59"/>
<path fill-rule="evenodd" clip-rule="evenodd" d="M510.6 388.501V435.601L535.4 411.801L510.6 388.501Z" fill="#FFDD59"/>
<path fill-rule="evenodd" clip-rule="evenodd" d="M539.8 415.9L515 439.8H565.2V439.8L539.8 415.9Z" fill="#FFDD59"/>
<path fill-rule="evenodd" clip-rule="evenodd" d="M564 384.301H515L539.8 407.601L564 384.301Z" fill="#FFDD59"/>
<path fill-rule="evenodd" clip-rule="evenodd" d="M680.8 431.7V391.4L659.6 411.7L680.8 431.7Z" fill="#FFDD59"/>
<path fill-rule="evenodd" clip-rule="evenodd" d="M544.2 411.7L565.4 431.7V391.4L544.2 411.7Z" fill="#FFDD59"/>
<path fill-rule="evenodd" clip-rule="evenodd" d="M655.3 415.9L630.5 439.8H680.7V439.8L655.3 415.9Z" fill="#FFDD59"/>
<path fill-rule="evenodd" clip-rule="evenodd" d="M621.7 384.301H572.7L597.5 407.601L621.7 384.301Z" fill="#FFDD59"/>
<path fill-rule="evenodd" clip-rule="evenodd" d="M738.5 384.301H686.8V439.801V439.801H738.5V439.801V384.301Z" fill="#FFDD59"/>
<path fill-rule="evenodd" clip-rule="evenodd" d="M799.2 384.301H744.5V439.801V439.801H799.2V384.301Z" fill="#FFDD59"/>
<path fill-rule="evenodd" clip-rule="evenodd" d="M680.6 439.801C680.7 439.901 680.7 439.901 680.8 439.901V439.801H680.6Z" fill="#FFDD59"/>
<path fill-rule="evenodd" clip-rule="evenodd" d="M1088.1 177.9H1057.1C1055.44 177.9 1054.1 179.244 1054.1 180.9V211.9C1054.1 213.557 1055.44 214.9 1057.1 214.9H1088.1C1089.76 214.9 1091.1 213.557 1091.1 211.9V180.9C1091.1 179.244 1089.76 177.9 1088.1 177.9ZM1085.1 183.899V208.899H1060.1V183.899H1085.1Z" fill="#2E186A"/>
<path fill-rule="evenodd" clip-rule="evenodd" d="M1094.2 121.7H975.7C974.043 121.7 972.7 123.043 972.7 124.7V160.4C972.7 162.057 974.043 163.4 975.7 163.4H1094.2C1095.86 163.4 1097.2 162.057 1097.2 160.4V124.7C1097.2 123.043 1095.86 121.7 1094.2 121.7ZM1091.2 127.7V157.4H978.7V127.7H1091.2Z" fill="#2E186A"/>
<path fill-rule="evenodd" clip-rule="evenodd" d="M1036 208.9C1037.66 208.9 1039 210.244 1039 211.9C1039 213.498 1037.75 214.804 1036.18 214.895L1036 214.9H975.7C974.043 214.9 972.7 213.557 972.7 211.9C972.7 210.303 973.949 208.997 975.524 208.905L975.7 208.9H1036Z" fill="#2E186A"/>
<path fill-rule="evenodd" clip-rule="evenodd" d="M1036 194.2C1037.66 194.2 1039 195.543 1039 197.2C1039 198.798 1037.75 200.104 1036.18 200.195L1036 200.2H975.7C974.043 200.2 972.7 198.857 972.7 197.2C972.7 195.603 973.949 194.297 975.524 194.205L975.7 194.2H1036Z" fill="#2E186A"/>
<path fill-rule="evenodd" clip-rule="evenodd" d="M1036 179.601C1037.66 179.601 1039 180.944 1039 182.601C1039 184.198 1037.75 185.504 1036.18 185.595L1036 185.601H975.7C974.043 185.601 972.7 184.257 972.7 182.601C972.7 181.003 973.949 179.697 975.524 179.606L975.7 179.601H1036Z" fill="#2E186A"/>
<path fill-rule="evenodd" clip-rule="evenodd" d="M1043.2 292.7C1044.86 292.7 1046.2 294.043 1046.2 295.7C1046.2 297.298 1044.95 298.604 1043.38 298.695L1043.2 298.7H878.5C876.843 298.7 875.5 297.357 875.5 295.7C875.5 294.103 876.749 292.797 878.324 292.705L878.5 292.7H1043.2Z" fill="#2E186A"/>
<path fill-rule="evenodd" clip-rule="evenodd" d="M975.7 306.8C977.357 306.8 978.7 308.143 978.7 309.8C978.7 311.397 977.451 312.703 975.876 312.795L975.7 312.8H878.5C876.843 312.8 875.5 311.457 875.5 309.8C875.5 308.202 876.749 306.896 878.324 306.805L878.5 306.8H975.7Z" fill="#2E186A"/>
<path fill-rule="evenodd" clip-rule="evenodd" d="M709.5 210.3L822.5 153C831.5 170.8 836.2 190.4 836.2 210.3C836.2 279.8 779 337 709.5 337C670.9 337 634.4 319.4 610.4 289.2L709.5 210.3Z" fill="#FFDD59"/>
<path fill-rule="evenodd" clip-rule="evenodd" d="M911.3 110.6C912.957 110.6 914.3 111.943 914.3 113.6C914.3 115.197 913.051 116.503 911.476 116.595L911.3 116.6H806.6C804.943 116.6 803.6 115.256 803.6 113.6C803.6 112.002 804.849 110.696 806.424 110.605L806.6 110.6H911.3Z" fill="#2E186A"/>
<path fill-rule="evenodd" clip-rule="evenodd" d="M911.3 124.7C912.957 124.7 914.3 126.043 914.3 127.7C914.3 129.298 913.051 130.604 911.476 130.695L911.3 130.7H855.5C853.843 130.7 852.5 129.357 852.5 127.7C852.5 126.103 853.749 124.797 855.324 124.705L855.5 124.7H911.3Z" fill="#2E186A"/>
<path fill-rule="evenodd" clip-rule="evenodd" d="M911.3 138.9C912.957 138.9 914.3 140.244 914.3 141.9C914.3 143.498 913.051 144.804 911.476 144.895L911.3 144.9H874.2C872.543 144.9 871.2 143.557 871.2 141.9C871.2 140.303 872.449 138.997 874.024 138.905L874.2 138.9H911.3Z" fill="#2E186A"/>
<path fill-rule="evenodd" clip-rule="evenodd" d="M914.4 222.9C916.057 222.9 917.4 224.244 917.4 225.9C917.4 227.498 916.151 228.804 914.576 228.895L914.4 228.9H779.3C777.643 228.9 776.3 227.557 776.3 225.9C776.3 224.303 777.549 222.997 779.124 222.905L779.3 222.9H914.4Z" fill="#2E186A"/>
<path fill-rule="evenodd" clip-rule="evenodd" d="M914.4 234C916.057 234 917.4 235.343 917.4 237C917.4 238.598 916.151 239.904 914.576 239.995L914.4 240H889.1C887.443 240 886.1 238.657 886.1 237C886.1 235.402 887.349 234.096 888.924 234.005L889.1 234H914.4Z" fill="#2E186A"/>
<path fill-rule="evenodd" clip-rule="evenodd" d="M632.7 98.9004C634.357 98.9004 635.7 100.244 635.7 101.9C635.7 103.498 634.451 104.804 632.876 104.895L632.7 104.9H552.2C550.543 104.9 549.2 103.557 549.2 101.9C549.2 100.303 550.449 98.9967 552.024 98.9055L552.2 98.9004H632.7Z" fill="#2E186A"/>
<path fill-rule="evenodd" clip-rule="evenodd" d="M568.3 110.301C569.957 110.301 571.3 111.644 571.3 113.301C571.3 114.898 570.051 116.204 568.476 116.296L568.3 116.301H552.2C550.543 116.301 549.2 114.958 549.2 113.301C549.2 111.703 550.449 110.397 552.024 110.306L552.2 110.301H568.3Z" fill="#2E186A"/>
<path fill-rule="evenodd" clip-rule="evenodd" d="M685.868 212.901L563.968 214.201C562.311 214.218 560.982 215.576 561 217.232C561.3 245.322 570.901 271.898 588.052 293.468C589.082 294.763 590.967 294.98 592.264 293.951L687.764 218.251C690.004 216.476 688.727 212.87 685.868 212.901ZM677.169 218.992L590.914 287.364L590.681 287.058C576.327 267.922 568.04 244.934 567.086 220.611L567.07 220.167L677.169 218.992Z" fill="#FFDD59"/>
<path fill-rule="evenodd" clip-rule="evenodd" d="M574.602 159.917C569.061 174.24 566.2 189.422 566.2 205.1V206.7C566.2 208.372 567.567 209.722 569.239 209.7L691.039 208.1C694.337 208.056 695.16 203.497 692.086 202.303L578.486 158.203C576.94 157.603 575.2 158.371 574.602 159.917ZM579.149 164.897L675.507 202.303L572.209 203.66L572.217 203.066C572.43 190.208 574.669 177.723 578.823 165.821L579.149 164.897Z" fill="#FFDD59"/>
<path fill-rule="evenodd" clip-rule="evenodd" d="M771.592 86.3175L711.492 192.017C710.029 194.591 712.783 197.504 715.435 196.187L824.335 142.087C825.815 141.351 826.422 139.556 825.691 138.074C814.755 115.895 797.263 97.4209 775.679 85.1903C774.239 84.3742 772.41 84.8787 771.592 86.3175ZM775.307 91.9203L775.663 92.1343C793.879 103.164 808.823 118.95 818.762 137.702L818.951 138.061L721.562 186.443L775.307 91.9203Z" fill="#FFDD59"/>
<path fill-rule="evenodd" clip-rule="evenodd" d="M760.2 90.6C742.6 80.5 722.2 74.7 700.5 74.5H698.5C647.4 75 603.9 106.9 586.3 151.8L699.7 196.3L760.2 90.6Z" fill="#2E186A"/>
<path fill-rule="evenodd" clip-rule="evenodd" d="M586.7 234.4C588.357 234.4 589.7 235.744 589.7 237.4C589.7 238.998 588.451 240.304 586.876 240.395L586.7 240.4H506.2C504.543 240.4 503.2 239.057 503.2 237.4C503.2 235.803 504.449 234.497 506.024 234.405L506.2 234.4H586.7Z" fill="#2E186A"/>
<path fill-rule="evenodd" clip-rule="evenodd" d="M535.3 245.8C536.957 245.8 538.3 247.143 538.3 248.8C538.3 250.397 537.051 251.703 535.476 251.795L535.3 251.8H506.2C504.543 251.8 503.2 250.457 503.2 248.8C503.2 247.202 504.449 245.896 506.024 245.805L506.2 245.8H535.3Z" fill="#2E186A"/>
<path fill-rule="evenodd" clip-rule="evenodd" d="M1116.41 580.405C1118.07 580.302 1119.49 581.559 1119.59 583.212C1119.7 584.866 1118.44 586.29 1116.79 586.394C1110.58 586.781 1104.05 587.522 1097.61 588.599L1089.15 590.085L1085.48 590.746C1084.55 590.916 1083.66 591.081 1082.79 591.244L1081.5 591.488C1072.17 593.263 1065.47 594.829 1061.57 596.268C1060.67 596.603 1059.95 596.919 1059.45 597.199C1059.33 597.267 1059.23 597.33 1059.15 597.384L1059.03 597.469C1058.44 598.415 1058.62 598.913 1059.95 599.723L1060.12 599.826C1062.27 601.089 1065.96 601.834 1069.8 601.701C1071.45 601.644 1072.84 602.94 1072.9 604.596C1072.96 606.252 1071.66 607.641 1070 607.698C1065.11 607.867 1060.31 606.899 1057.08 604.998C1052.8 602.479 1051.32 598.248 1054.09 594.052C1055.03 592.62 1056.77 591.646 1059.5 590.639L1060.12 590.417C1064.25 588.971 1070.53 587.496 1079.05 585.848L1081.68 585.347C1083.22 585.059 1084.83 584.765 1086.57 584.451L1095.08 582.945C1102.23 581.689 1109.51 580.837 1116.41 580.405Z" fill="#2E186A"/>
<path fill-rule="evenodd" clip-rule="evenodd" d="M1169.97 575.524L1170.02 575.696L1184.12 634.096C1184.56 635.926 1183.23 637.69 1181.38 637.795L1181.2 637.8L1101.7 637.799L1101.36 637.819C1091.56 638.346 1085.72 635.799 1085.51 630.316L1085.5 630.075C1085.5 629.647 1085.53 629.218 1085.61 628.791L1085.64 628.617L1085.36 628.605C1079.76 628.329 1074.22 625.444 1072.92 622.042L1072.85 621.848C1072.51 620.831 1072.63 619.715 1073.14 618.533L1073.17 618.459L1072.97 618.485C1070.3 618.812 1068.14 618.822 1066.43 618.496L1066.18 618.445C1061.14 617.357 1059.8 613.184 1062.31 608.18C1063.81 605.104 1071.12 600.284 1082.5 594.056L1084.36 593.046C1092.74 588.534 1101.13 584.531 1104.57 583.437L1105.16 583.261C1108.09 582.444 1117.62 580.823 1132.38 578.539L1135.7 578.027C1140.01 577.367 1144.52 576.687 1149.1 576.006L1161.05 574.246L1166.67 573.43C1168.15 573.219 1169.54 574.118 1169.97 575.524ZM1177.39 631.799L1164.82 579.76L1157.87 580.775L1149.98 581.94C1146.72 582.426 1143.49 582.911 1140.34 583.389L1131 584.825C1118.02 586.849 1109.27 588.353 1106.82 589.028L1106.62 589.084C1099.25 591.192 1069.27 607.598 1067.68 610.841C1067.4 611.407 1067.22 611.882 1067.12 612.255L1067.09 612.409L1067.08 612.481L1067.23 612.527L1067.45 612.58C1069.43 613.009 1073.39 612.574 1079.15 611.231L1080.32 610.952L1080.37 610.912C1082.9 609.088 1085.95 607.264 1089.34 605.529L1089.75 605.322C1091.55 604.411 1093.51 603.487 1095.59 602.554C1099.46 600.828 1103.58 599.151 1107.7 597.585L1108.91 597.128C1109.51 596.907 1110.08 596.696 1110.62 596.495L1112 595.998L1113.22 595.565C1114.78 595.023 1116.49 595.853 1117.03 597.418C1117.56 598.928 1116.8 600.571 1115.35 601.172L1113.72 601.753L1112.69 602.13C1111.8 602.456 1110.84 602.812 1109.83 603.194C1105.81 604.722 1101.79 606.358 1098.04 608.031C1096.04 608.928 1094.17 609.813 1092.45 610.678C1087.88 612.986 1083.97 615.531 1081.32 617.839C1080.35 618.681 1079.6 619.45 1079.11 620.079L1078.99 620.238L1079.17 620.383C1079.89 620.926 1080.85 621.454 1081.91 621.862C1084.34 622.797 1086.85 622.968 1089.01 622.217L1089.08 622.191L1089.33 622.037C1092.37 620.214 1096.49 618.329 1101.46 616.401L1102.11 616.15C1104.24 615.335 1106.44 614.539 1108.69 613.77L1110.11 613.288L1111.5 612.731C1117.4 610.386 1119.32 609.907 1120.98 610.256L1121.06 610.274C1124.09 610.962 1124.21 615.234 1121.22 616.085L1120.35 616.339L1118.75 616.819C1118.05 617.034 1117.3 617.265 1116.52 617.511L1115.93 617.698C1115.04 617.979 1114.16 618.265 1113.28 618.556L1112.25 618.899L1108.99 620.223L1102.11 623.053C1100.03 623.899 1098.69 624.428 1097.34 624.929L1096.8 625.127C1093.86 626.172 1091.49 628.65 1091.5 630.024C1091.5 630.32 1091.71 630.592 1092.64 630.995C1094.27 631.705 1097.06 632.038 1100.96 631.832L1101.41 631.805L1101.6 631.8L1177.39 631.799Z" fill="#2E186A"/>
<path fill-rule="evenodd" clip-rule="evenodd" d="M1408 418.6C1408.9 392.4 1394.6 368.1 1371.3 356.2L1333.6 335.9L1329.5 354.5C1325 374.7 1305 387.5 1284.8 383L1279.9 381.9C1259.7 377.4 1246.9 357.4 1251.4 337.2L1257.7 308.9C1250.5 303.9 1244.8 297.1 1242.1 288.3C1241.9 287.7 1241.8 287.1 1241.6 286.6L1204 266.4L1203.9 558.1L1305.9 537.2L1301 468.7C1300.9 467 1302.1 465.6 1303.8 465.5C1305.5 465.4 1306.9 466.6 1307 468.3L1312.1 539.4C1312.2 540.9 1311.2 542.3 1309.7 542.6L1203.9 564.3V565.1L1146 575.7C1157.4 577.9 1170 634.4 1170 634.4H1375.4C1395.4 634.4 1411.6 618 1411.3 597.9L1408 418.6Z" fill="#2E186A"/>
<path fill-rule="evenodd" clip-rule="evenodd" d="M1339.26 292.885C1339.6 291.263 1341.19 290.224 1342.82 290.565C1344.38 290.893 1345.4 292.383 1345.17 293.943L1345.14 294.117L1332.33 355.153C1327.51 376.769 1306.28 390.509 1284.7 386.068L1284.04 385.928L1279.15 384.829C1257.53 380.013 1243.79 358.779 1248.23 337.203L1248.37 336.549L1254.67 308.249C1255.03 306.631 1256.63 305.612 1258.25 305.972C1259.81 306.319 1260.81 307.822 1260.56 309.379L1260.53 309.552L1254.23 337.853C1250.13 356.228 1261.61 374.459 1279.9 378.845L1280.46 378.973L1285.35 380.072C1303.73 384.166 1321.96 372.687 1326.34 354.44L1326.46 353.885L1339.26 292.885Z" fill="#2E186A"/>
<path fill-rule="evenodd" clip-rule="evenodd" d="M1271.52 156.372L1270.86 157.497C1259.44 177.067 1249.79 200.747 1242.92 224.155L1242.9 224.222L1242.91 224.188C1242.91 224.198 1242.9 224.211 1242.9 224.225L1242.63 225.141L1242.39 225.994L1242.13 226.913C1242.05 227.231 1241.96 227.56 1241.87 227.903C1241.07 230.875 1240.29 234.152 1239.55 237.686C1237.38 248.1 1236.11 258.516 1236.18 268.292C1236.23 276.029 1237.14 283.047 1239.03 289.184C1243 302.04 1253.11 311.724 1266.92 317.364C1279.01 322.308 1293.14 323.688 1304.44 321.231L1305.64 320.966C1324.05 316.868 1330.17 313.152 1340.26 301.324L1340.59 300.94C1343.75 297.205 1348.62 289.548 1354.83 278.818L1356.28 276.308C1356.65 275.663 1357.02 275.009 1357.4 274.348C1360.62 268.688 1363.94 262.663 1367.23 256.606L1369.03 253.259C1369.44 252.507 1369.83 251.774 1370.21 251.064L1372.96 245.894L1373.12 245.578C1373.53 244.744 1374.1 243.511 1374.76 241.911C1375.77 239.458 1376.75 236.722 1377.65 233.744C1380.17 225.446 1381.63 216.682 1381.56 207.774C1381.36 182.518 1369.07 160.901 1341.11 146.05L1340.09 145.516C1337.48 144.171 1334.39 142.773 1330.78 141.422C1324.72 139.149 1318.5 137.545 1312.32 136.891C1295.29 135.092 1281.04 140.696 1271.8 155.905L1271.52 156.372ZM1311.68 142.858C1317.32 143.453 1323.05 144.934 1328.68 147.04C1332.5 148.47 1335.68 149.953 1338.29 151.346C1364.25 165.135 1375.38 184.707 1375.56 207.822C1375.63 216.073 1374.26 224.25 1371.91 232.004C1371.07 234.791 1370.15 237.346 1369.21 239.627L1368.87 240.431C1368.71 240.818 1368.55 241.185 1368.39 241.529L1368.05 242.273C1367.96 242.46 1367.88 242.621 1367.82 242.756L1367.51 243.352L1365.66 246.851C1364.94 248.204 1364.16 249.65 1363.34 251.172L1362.93 251.939C1359.35 258.569 1355.7 265.199 1352.18 271.382L1351.07 273.325L1349.98 275.218C1343.9 285.745 1339.09 293.355 1336.17 296.872L1335.4 297.783C1326.15 308.57 1321.04 311.482 1303.16 315.368C1293.07 317.563 1280.18 316.303 1269.18 311.81C1256.93 306.803 1248.16 298.398 1244.77 287.415C1243.06 281.892 1242.23 275.441 1242.18 268.25C1242.12 259.31 1243.25 249.708 1245.19 240.065L1245.48 238.624L1245.65 237.841C1246.61 233.454 1248.05 227.885 1248.59 225.818L1248.68 225.845C1255.42 202.874 1264.89 179.635 1276.04 160.528L1276.68 159.431C1284.6 146.081 1296.65 141.27 1311.68 142.858Z" fill="#2E186A"/>
<path fill-rule="evenodd" clip-rule="evenodd" d="M1245.8 224.901C1251.7 204.901 1261.1 179.601 1274.1 157.801C1274.7 156.801 1275.3 155.801 1276 154.901C1265.5 146.701 1248.4 163.601 1236.6 198.501C1230.5 216.501 1213.9 225.601 1213.9 225.601C1226.6 236.701 1238.1 231.901 1245.6 225.601C1245.7 225.201 1245.7 224.901 1245.8 224.901Z" fill="#2E186A"/>
<path fill-rule="evenodd" clip-rule="evenodd" d="M1272.61 212.29C1273.23 210.751 1274.97 210 1276.51 210.613C1277.99 211.204 1278.75 212.848 1278.25 214.344L1278.19 214.51L1265.82 245.551L1274.04 248.586C1275.54 249.14 1276.33 250.764 1275.87 252.273L1275.81 252.44C1275.26 253.938 1273.64 254.731 1272.13 254.271L1271.96 254.214L1260.86 250.114C1259.34 249.551 1258.55 247.882 1259.05 246.359L1259.11 246.19L1272.61 212.29Z" fill="#2E186A"/>
<path fill-rule="evenodd" clip-rule="evenodd" d="M1266.35 211.048C1267.54 208.257 1267.07 205.376 1265.3 204.614C1263.52 203.852 1261.11 205.497 1259.91 208.288C1258.72 211.08 1259.18 213.961 1260.96 214.723C1262.74 215.485 1265.15 213.84 1266.35 211.048Z" fill="#2E186A"/>
<path fill-rule="evenodd" clip-rule="evenodd" d="M1297.2 224.354C1297.86 221.387 1296.86 218.645 1294.97 218.229C1293.08 217.812 1291.02 219.879 1290.37 222.845C1289.71 225.811 1290.71 228.554 1292.6 228.97C1294.49 229.387 1296.55 227.32 1297.2 224.354Z" fill="#2E186A"/>
<path fill-rule="evenodd" clip-rule="evenodd" d="M1305.66 201.912C1305.98 200.288 1307.56 199.234 1309.19 199.559C1313.76 200.474 1317.36 202.694 1320.02 205.798C1321.28 207.26 1322.24 208.82 1322.96 210.385C1323.4 211.35 1323.67 212.134 1323.8 212.65C1324.22 214.254 1323.25 215.891 1321.65 216.305C1320.1 216.705 1318.53 215.822 1318.04 214.321L1317.95 214.007C1317.88 213.774 1317.73 213.385 1317.5 212.886C1317.01 211.804 1316.34 210.717 1315.47 209.707C1313.65 207.584 1311.22 206.084 1308.01 205.442C1306.39 205.117 1305.33 203.537 1305.66 201.912Z" fill="#2E186A"/>
<path fill-rule="evenodd" clip-rule="evenodd" d="M1266.23 180.163C1269.82 179.901 1273.44 181.114 1276.97 183.247C1278.83 184.37 1280.26 185.495 1281.13 186.291C1282.35 187.412 1282.43 189.309 1281.31 190.53C1280.19 191.75 1278.29 191.831 1277.07 190.71L1276.95 190.599C1276.79 190.466 1276.55 190.268 1276.24 190.023C1275.53 189.464 1274.73 188.903 1273.86 188.382C1271.3 186.833 1268.8 185.992 1266.67 186.147C1265.67 186.221 1264.75 186.515 1263.9 187.066L1263.65 187.239C1262.3 188.204 1260.43 187.894 1259.46 186.547C1258.5 185.2 1258.81 183.326 1260.15 182.361C1262 181.042 1264.05 180.323 1266.23 180.163Z" fill="#2E186A"/>
<path fill-rule="evenodd" clip-rule="evenodd" d="M1437.3 225.9L1403.4 208.7C1407.7 183.5 1405 144.5 1357.7 122.5C1283.7 88.1001 1256.7 162.2 1256.7 162.2L1426.2 247.7C1432.2 250.8 1439.6 248.3 1442.7 242.3C1445.8 236.3 1443.4 229 1437.3 225.9Z" fill="#FFDD59"/>
<path fill-rule="evenodd" clip-rule="evenodd" d="M1292.28 266.545C1293.52 267.638 1293.65 269.533 1292.55 270.779C1292.33 271.031 1291.97 271.398 1291.46 271.839C1290.66 272.538 1289.72 273.228 1288.64 273.869C1282.28 277.643 1274.24 278.123 1265.02 273.365C1263.55 272.605 1262.97 270.796 1263.73 269.323C1264.49 267.851 1266.3 267.274 1267.78 268.034C1275.09 271.81 1280.94 271.46 1285.58 268.709C1286.33 268.261 1286.98 267.784 1287.52 267.316L1287.77 267.095L1288.05 266.821C1289.14 265.576 1291.03 265.452 1292.28 266.545Z" fill="#2E186A"/>
<path fill-rule="evenodd" clip-rule="evenodd" d="M1399.5 234.201L1328 198.101C1319.7 224.001 1309.3 275.901 1353.6 289.601C1353.6 289.601 1388.2 301.101 1398.2 289.701C1398.2 289.701 1374.4 272.301 1379.8 258.001C1379.8 258.001 1404.1 294.001 1432.7 274.901C1432.6 274.901 1398.9 264.101 1399.5 234.201Z" fill="#2E186A"/>
<path fill-rule="evenodd" clip-rule="evenodd" d="M1583 631.7C1584.66 631.7 1586 633.043 1586 634.7C1586 636.298 1584.75 637.604 1583.18 637.695L1583 637.7H3.39999C1.74314 637.7 0.399994 636.357 0.399994 634.7C0.399994 633.103 1.64891 631.797 3.22372 631.705L3.39999 631.7H1583Z" fill="#2E186A"/>
</svg>
